<svg width="170" height="183" viewBox="0 0 170 183" fill="none" xmlns="http://www.w3.org/2000/svg">
<path d="M128.494 124.028L157.064 140.523C149.853 150.131 140.744 157.888 130.468 163.473L93.6214 140.819C107.137 140.167 119.564 134.176 128.494 124.028ZM9.24855 99.3164L120.834 167.93C111.504 171.535 101.475 173.479 91.1596 173.479C48.5212 173.479 13.3568 140.894 9.24855 99.3164ZM91.1596 8.83972C101.308 8.83972 111.179 10.7182 120.379 14.2076L9.25076 82.974C13.3723 41.4119 48.5322 8.83972 91.1596 8.83972ZM157.064 41.7986L128.494 58.2913C119.449 48.0151 106.815 42.0063 93.0954 41.487L130.05 18.6209C140.498 24.2208 149.756 32.0572 157.064 41.7986ZM45.7544 111.387L12.8397 91.1485L45.8494 70.7221C43.0229 76.9608 41.4362 83.8756 41.4362 91.1596C41.4362 98.3595 42.9875 105.201 45.7544 111.387ZM123.917 115.661C116.076 126.072 104.138 132.043 91.1596 132.043C68.6161 132.043 50.2759 113.703 50.2759 91.1596C50.2759 68.6161 68.6161 50.2759 91.1596 50.2759C104.138 50.2759 116.076 56.2471 123.917 66.6581L126.269 69.7829L169.758 44.6759L167.148 40.7555C158.246 27.3766 146.185 16.8596 132.333 9.84745C132.043 9.65519 131.734 9.50933 131.413 9.39C119.078 3.31932 105.365 9.17912e-06 91.1596 9.17912e-06C40.9566 9.17912e-06 0.106081 40.7953 0.00663457 90.9761C0.00442465 90.985 0.00442586 90.9938 0.00442586 91.0026C0.00442586 91.0557 0 91.1065 0 91.1596C0 91.217 0.00442586 91.2745 0.00442586 91.3319C0.00663579 91.3386 0.00663457 91.3474 0.00663457 91.354C0.112711 141.53 40.961 182.319 91.1596 182.319C105.604 182.319 119.539 178.887 132.034 172.62C132.247 172.531 132.448 172.436 132.644 172.317C146.366 165.303 158.313 154.843 167.148 141.566L169.758 137.643L126.269 112.536L123.917 115.661Z" fill="white"/>
</svg>
