<svg width="357" height="383" viewBox="0 0 357 383" fill="none" xmlns="http://www.w3.org/2000/svg">
<path d="M269.807 260.429L329.797 295.064C314.655 315.24 295.528 331.527 273.95 343.254L196.582 295.686C224.963 294.317 251.055 281.737 269.807 260.429ZM19.4197 208.54L253.723 352.613C234.132 360.181 213.074 364.265 191.413 364.265C101.883 364.265 28.0461 295.843 19.4197 208.54ZM191.413 18.5613C212.721 18.5613 233.45 22.5055 252.767 29.8326L19.4244 174.225C28.0786 86.9549 101.906 18.5613 191.413 18.5613ZM329.797 87.767L269.807 122.398C250.814 100.82 224.285 88.2031 195.478 87.1127L273.073 39.0993C295.013 50.8579 314.451 67.3124 329.797 87.767ZM96.0731 233.886L26.9603 191.39L96.2727 148.499C90.3377 161.599 87.006 176.119 87.006 191.413C87.006 206.531 90.2635 220.898 96.0731 233.886ZM260.197 242.86C243.733 264.721 218.666 277.259 191.413 277.259C144.077 277.259 105.567 238.749 105.567 191.413C105.567 144.077 144.077 105.567 191.413 105.567C218.666 105.567 243.733 118.105 260.197 139.966L265.134 146.527L356.451 93.8086L350.97 85.5767C332.279 57.4842 306.952 35.401 277.867 20.6772C277.259 20.2735 276.609 19.9673 275.936 19.7167C250.034 6.96974 221.241 -1.69277e-05 191.413 -1.69277e-05C85.999 -1.69277e-05 0.222745 85.6602 0.013931 191.028C0.00929069 191.046 0.00929324 191.065 0.00929324 191.084C0.00929324 191.195 0 191.302 0 191.413C0 191.534 0.00929324 191.654 0.00929324 191.775C0.0139336 191.789 0.013931 191.807 0.013931 191.821C0.236666 297.18 86.0083 382.826 191.413 382.826C221.742 382.826 251.004 375.62 277.24 362.46C277.686 362.274 278.108 362.075 278.521 361.824C307.333 347.096 332.418 325.133 350.97 297.254L356.451 289.018L265.134 236.299L260.197 242.86Z" fill="white"/>
</svg>
